<svg width="46" height="34" viewBox="0 0 46 34" fill="none" xmlns="http://www.w3.org/2000/svg">
<path d="M45.9515 9.61051C45.4189 4.66472 41.1094 0.745264 35.9284 0.511968C29.8274 0.232063 24.7915 4.89801 24.7915 10.7303C24.7915 15.023 27.5517 18.6623 31.4251 20.2021L25.4694 31.9603C25.1303 32.66 25.663 33.5 26.4378 33.5H30.505C30.8442 33.5 31.1829 33.3601 31.3764 33.0801L44.1596 16.4695C45.5157 14.5095 46.1935 12.13 45.9518 9.61025L45.9515 9.61051Z" fill="#E0E1E2"/>
<path d="M11.1368 0.511968C5.03587 0.232063 0 4.89801 0 10.7303C0 15.023 2.76017 18.6623 6.63359 20.2021L0.677893 31.9603C0.338782 32.66 0.871431 33.5 1.64623 33.5H5.7135C6.05261 33.5 6.39138 33.3601 6.58491 33.0801L19.368 16.4695C20.7238 14.5564 21.4017 12.1768 21.1112 9.65707C20.5789 4.66438 16.2694 0.745172 11.1365 0.511876L11.1368 0.511968Z" fill="#E0E1E2"/>
</svg>
